<svg aria-hidden="true" style="position:absolute;width:0;height:0;overflow:hidden" xmlns="http://www.w3.org/2000/svg">
  <defs>
  <symbol id="icon-outline" viewBox="0 0 32 32">
<path stroke-linejoin="round" stroke-linecap="round" stroke-miterlimit="4" stroke-width="2.6667" d="M16 12v8M20 16h-8M28 16c0 1.576-0.31 3.136-0.913 4.592s-1.487 2.779-2.601 3.893c-1.114 1.114-2.437 1.998-3.893 2.601s-3.016 0.913-4.592 0.913-3.136-0.31-4.592-0.913c-1.456-0.603-2.779-1.487-3.893-2.601s-1.998-2.437-2.601-3.893c-0.603-1.456-0.913-3.016-0.913-4.592 0-3.183 1.264-6.235 3.515-8.485s5.303-3.515 8.485-3.515c3.183 0 6.235 1.264 8.485 3.515s3.515 5.303 3.515 8.485z"></path>
</symbol>
  <symbol id="icon-left" viewBox="0 0 19 32">
<path d="M1.611 16.989c-0.262-0.262-0.409-0.618-0.409-0.989s0.147-0.727 0.409-0.989l14-14c0.128-0.138 0.283-0.248 0.454-0.324s0.357-0.118 0.545-0.121 0.375 0.031 0.549 0.102c0.174 0.070 0.333 0.175 0.466 0.308s0.238 0.291 0.308 0.466c0.070 0.174 0.105 0.361 0.102 0.549s-0.044 0.373-0.121 0.545-0.187 0.326-0.324 0.454l-13.011 13.011 13.011 13.011c0.138 0.128 0.248 0.283 0.324 0.454s0.118 0.357 0.121 0.545c0.003 0.188-0.031 0.375-0.102 0.549s-0.175 0.333-0.308 0.466c-0.133 0.133-0.291 0.238-0.466 0.308s-0.361 0.105-0.549 0.102c-0.188-0.003-0.373-0.044-0.545-0.121s-0.326-0.187-0.454-0.324l-14-14z"></path>
</symbol>
  <symbol id="icon-right" viewBox="0 0 19 32">
<path d="M17.589 16.989c0.262-0.262 0.409-0.618 0.409-0.989s-0.147-0.727-0.409-0.989l-14-14c-0.128-0.138-0.283-0.248-0.454-0.324s-0.357-0.118-0.545-0.121c-0.188-0.003-0.375 0.031-0.549 0.102s-0.333 0.175-0.466 0.308c-0.133 0.133-0.238 0.291-0.308 0.466s-0.105 0.361-0.102 0.549c0.003 0.188 0.044 0.373 0.121 0.545s0.187 0.326 0.324 0.454l13.011 13.011-13.011 13.011c-0.138 0.128-0.248 0.283-0.324 0.454s-0.118 0.357-0.121 0.545c-0.003 0.188 0.031 0.375 0.102 0.549s0.175 0.333 0.308 0.466 0.291 0.238 0.466 0.308c0.174 0.070 0.361 0.105 0.549 0.102s0.373-0.044 0.545-0.121c0.172-0.077 0.326-0.187 0.454-0.324l14-14z"></path>
</symbol>
  <symbol id="icon-increment" viewBox="0 0 32 32"><path style="fill: var(--color1, #407bff)" d="M16 7c0.265 0 0.52 0.105 0.707 0.293s0.293 0.442 0.293 0.707v7h7c0.265 0 0.52 0.105 0.707 0.293s0.293 0.442 0.293 0.707-0.105 0.52-0.293 0.707c-0.187 0.188-0.442 0.293-0.707 0.293h-7v7c0 0.265-0.105 0.52-0.293 0.707s-0.442 0.293-0.707 0.293-0.52-0.105-0.707-0.293c-0.188-0.187-0.293-0.442-0.293-0.707v-7h-7c-0.265 0-0.52-0.105-0.707-0.293s-0.293-0.442-0.293-0.707 0.105-0.52 0.293-0.707c0.188-0.188 0.442-0.293 0.707-0.293h7v-7c0-0.265 0.105-0.52 0.293-0.707s0.442-0.293 0.707-0.293z"></path></symbol>

<symbol id="icon-increment-outline" viewBox="0 0 32 32"><path stroke-linejoin="round" stroke-linecap="round" stroke-miterlimit="4" stroke-width="1.3333" d="M16 12v8M20 16h-8M28 16c0 1.576-0.31 3.136-0.913 4.592s-1.487 2.779-2.601 3.893c-1.114 1.114-2.437 1.998-3.893 2.601s-3.016 0.913-4.592 0.913-3.136-0.31-4.592-0.913c-1.456-0.603-2.779-1.487-3.893-2.601s-1.998-2.437-2.601-3.893c-0.603-1.456-0.913-3.016-0.913-4.592 0-3.183 1.264-6.235 3.515-8.485s5.303-3.515 8.485-3.515c3.183 0 6.235 1.264 8.485 3.515s3.515 5.303 3.515 8.485z"></path></symbol>
    <symbol id="icon-glass" viewBox="0 0 32 32">
      <path fill="#407bff" style="fill:var(--color1, #407bff)" d="m5.565 2.783 1.901 26.363v.072h16.367l1.901-26.353v-.082H5.565zm17.596 25.696H8.144L6.718 8.732h.784l1.289 17.403c.008.092.049.177.115.24s.153.098.244.099h.03a.363.363 0 0 0 .247-.124.375.375 0 0 0 .086-.265L8.224 8.734h16.362L23.16 28.481zm1.476-20.485H8.169l-.283-3.847c-.009-.094-.052-.181-.122-.244s-.16-.097-.252-.095c-.095.009-.183.055-.245.129s-.094.169-.088.266l.283 3.795h-.794l-.324-4.483h18.617l-.324 4.478z"/>
      <path fill="#407bff" style="fill:var(--color1, #407bff)" d="M11.36 12.384c.236 0 .467-.071.663-.204s.349-.322.439-.543a1.229 1.229 0 0 0-.259-1.319 1.187 1.187 0 0 0-1.3-.262c-.218.092-.404.247-.535.446a1.223 1.223 0 0 0 .148 1.528c.223.227.527.355.844.355zm0-1.687a.467.467 0 0 1 .434.294.482.482 0 0 1-.102.52.469.469 0 0 1-.803-.338c0-.127.05-.248.138-.337s.208-.14.333-.14zM11.354 16.318c.003.239.076.472.209.669s.321.35.539.439a1.178 1.178 0 0 0 1.296-.274 1.216 1.216 0 0 0 .248-1.319c-.091-.22-.245-.408-.442-.54a1.18 1.18 0 0 0-1.509.162 1.209 1.209 0 0 0-.342.864zm1.659 0a.47.47 0 0 1-.562.468.47.47 0 0 1-.37-.375.484.484 0 0 1 .2-.49.467.467 0 0 1 .594.06c.089.09.138.211.138.337zM19.834 16.349c.236 0 .467-.071.663-.204s.349-.322.439-.543a1.229 1.229 0 0 0-.259-1.319 1.187 1.187 0 0 0-1.3-.262c-.218.092-.404.247-.535.446a1.223 1.223 0 0 0 .148 1.528c.223.227.527.355.844.355zm0-1.683a.466.466 0 0 1 .435.296.492.492 0 0 1 .026.276.473.473 0 0 1-.372.373.461.461 0 0 1-.482-.207.482.482 0 0 1 .062-.6.469.469 0 0 1 .331-.138zM15.678 14.066c.236 0 .467-.071.663-.204s.349-.322.439-.543A1.229 1.229 0 0 0 16.521 12a1.183 1.183 0 0 0-1.835.184 1.223 1.223 0 0 0 .149 1.528c.224.227.527.355.844.355zm0-1.687a.467.467 0 0 1 .434.294.482.482 0 0 1-.102.52.465.465 0 0 1-.724-.073.481.481 0 0 1-.079-.265.488.488 0 0 1 .128-.354.461.461 0 0 1 .342-.149v.026zM13.402 20.929c.005.197.067.387.178.548s.267.285.448.357a.974.974 0 0 0 1.065-.232 1.005 1.005 0 0 0 .203-1.086 1.001 1.001 0 0 0-.363-.445.975.975 0 0 0-.545-.167c-.264.007-.514.118-.699.309s-.287.449-.287.716zm.986-.267a.262.262 0 0 1 .243.165.27.27 0 0 1-.057.291.264.264 0 0 1-.287.058.262.262 0 0 1-.162-.246c0-.071.028-.139.077-.189s.116-.078.186-.078zM18.17 19.816a1.008 1.008 0 0 0 .962-.614 1.042 1.042 0 0 0-.208-1.133c-.142-.146-.325-.245-.524-.285s-.405-.018-.591.063c-.186.08-.345.216-.454.389a1.042 1.042 0 0 0 .131 1.277c.181.186.426.294.684.304zm0-1.267c.07 0 .137.028.186.078a.27.27 0 0 1 0 .378c-.049.05-.116.078-.186.078s-.138-.028-.188-.078-.079-.118-.08-.189a.282.282 0 0 1 .079-.19.263.263 0 0 1 .189-.076zM20.253 11.538a1.017 1.017 0 0 0 .934-.633 1.037 1.037 0 0 0-.219-1.118.999.999 0 0 0-1.556.155 1.038 1.038 0 0 0 .126 1.295c.189.192.447.3.715.3zm0-1.267c.039-.011.08-.013.12-.006s.078.024.11.049a.27.27 0 0 1 .077.332.282.282 0 0 1-.077.094.254.254 0 0 1-.23.043c-.039.011-.08.013-.12.006s-.078-.024-.11-.049a.27.27 0 0 1-.077-.332.282.282 0 0 1 .077-.094.254.254 0 0 1 .23-.043zM10.369 27.191a.372.372 0 0 0-.193.219.396.396 0 0 0-.017.149.387.387 0 0 0 .178.289.371.371 0 0 0 .351.019 10.9 10.9 0 0 1 4.99-1.231c1.837.027 3.648.441 5.319 1.216a.357.357 0 0 0 .413-.054.369.369 0 0 0 .092-.413.378.378 0 0 0-.192-.205 13.78 13.78 0 0 0-5.633-1.282 11.6 11.6 0 0 0-5.309 1.293z"/>
    </symbol>
    <symbol id="icon-tools" viewBox="0 0 32 32">
      <path fill="none" stroke="#407bff" style="stroke:var(--color1, #407bff)" stroke-linejoin="round" stroke-linecap="round" stroke-width="1.6" d="M15.227 20.227 23 28a3.535 3.535 0 0 0 5.996-2.513 3.535 3.535 0 0 0-.995-2.488l-7.836-7.836m-4.938 5.064 3.328-4.04c.423-.512.987-.835 1.611-1.021.733-.219 1.551-.251 2.324-.187a6.006 6.006 0 0 0 6.486-5.404 6.013 6.013 0 0 0-.504-3.045l-4.368 4.369a4.01 4.01 0 0 1-3-3l4.368-4.368a6.008 6.008 0 0 0-7.912 2.943 6.01 6.01 0 0 0-.536 3.039c.121 1.435-.095 3.019-1.205 3.933l-.136.113m-.456 6.668L9.02 27.764a3.403 3.403 0 0 1-2.46 1.239A3.4 3.4 0 0 1 3 25.442a3.39 3.39 0 0 1 1.239-2.46l9.116-7.507-5.476-5.476H6l-3-5 2-2 5 3v1.879l5.68 5.68-2.327 1.916M24.5 24.5 21 21M6.489 25.5H6.5v.011h-.011V25.5z"/>
    </symbol>
    <symbol id="icon-outline1" viewBox="0 0 32 32">
      <path fill="none" stroke="#407bff" style="stroke:var(--color1, #407bff)" stroke-linejoin="round" stroke-linecap="round" stroke-width="1.6" d="M5 4v15a3.004 3.004 0 0 0 3 3h3M5 4H3m2 0h22M11 22h10m-10 0-1.333 4M27 4h2m-2 0v15a3.004 3.004 0 0 1-3 3h-3m0 0 1.333 4M9.667 26h12.667M9.667 26 9 28m13.333-2L23 28M12 15v2m4-5v5m4-8v8"/>
    </symbol>
    <symbol id="icon-calendar" viewBox="0 0 32 32">
      <path fill="none" stroke="#407bff" style="stroke:var(--color1, #407bff)" stroke-linejoin="round" stroke-linecap="round" stroke-width="1.6" d="M9 4v3m14-3v3M4 25V10a3.004 3.004 0 0 1 3-3h18a3.004 3.004 0 0 1 3 3v15M4 25a3.004 3.004 0 0 0 3 3h18a3.004 3.004 0 0 0 3-3M4 25V15a3.004 3.004 0 0 1 3-3h18a3.004 3.004 0 0 1 3 3v10m-12-8h.011v.011H16V17zm0 3h.011v.011H16V20zm0 3h.011v.011H16V23zm-3-3h.011v.011H13V20zm0 3h.011v.011H13V23zm-3-3h.011v.011H10V20zm0 3h.011v.011H10V23zm9-6h.011v.011H19V17zm0 3h.011v.011H19V20zm0 3h.011v.011H19V23zm3-6h.011v.011H22V17zm0 3h.011v.011H22V20z"/>
    </symbol>
    <symbol id="icon-down" viewBox="0 0 32 32">
      <path d="M16.706 21.707a1.002 1.002 0 0 1-1.414 0l-10-10a.996.996 0 0 1 .025-1.388 1.002 1.002 0 0 1 1.388-.025l9.293 9.293 9.293-9.293a1.013 1.013 0 0 1 .714-.318.993.993 0 0 1 .725.293.992.992 0 0 1 .293.725 1.001 1.001 0 0 1-.318.714l-10 10z"/>
    </symbol>
    <symbol id="icon-exit" viewBox="0 0 32 32">
      <path stroke-linejoin="round" stroke-linecap="round" stroke-width="1.333" d="M21 12V7a3.004 3.004 0 0 0-3-3h-8a3.004 3.004 0 0 0-3 3v18a3.004 3.004 0 0 0 3 3h8a3.004 3.004 0 0 0 3-3v-5m4 0 4-4m0 0-4-4m4 4H12"/>
    </symbol>
    <symbol id="icon-fix" viewBox="0 0 32 32">
      <path stroke-linejoin="round" stroke-linecap="round" stroke-width="1.333" d="M12.792 5.253A1.5 1.5 0 0 1 14.272 4h3.457c.733 0 1.36.531 1.48 1.253l.284 1.708c.084.499.417.915.86 1.16.099.053.196.111.293.169.432.261.96.343 1.433.165l1.623-.608a1.498 1.498 0 0 1 1.826.654l1.728 2.996c.177.308.24.668.177 1.018s-.249.665-.523.89l-1.337 1.103c-.391.32-.584.817-.575 1.323.002.113.002.227 0 .34-.009.504.184 1 .573 1.32l1.34 1.104c.565.467.712 1.272.347 1.907l-1.731 2.996a1.499 1.499 0 0 1-1.826.655l-1.623-.608c-.473-.177-1-.096-1.435.165a8.597 8.597 0 0 1-.293.171c-.441.244-.775.66-.859 1.159l-.284 1.707a1.5 1.5 0 0 1-1.48 1.255h-3.459c-.733 0-1.36-.531-1.48-1.253l-.284-1.708c-.083-.499-.416-.915-.859-1.16a9.308 9.308 0 0 1-.293-.169c-.433-.261-.96-.343-1.435-.165l-1.623.608a1.5 1.5 0 0 1-1.825-.653L4.74 20.506a1.5 1.5 0 0 1 .347-1.908l1.339-1.103c.389-.32.583-.817.573-1.323a9.634 9.634 0 0 1 0-.34c.009-.504-.184-1-.573-1.32l-1.339-1.104a1.502 1.502 0 0 1-.347-1.907l1.729-2.996a1.497 1.497 0 0 1 1.826-.654l1.621.608c.475.177 1.001.096 1.435-.165.096-.059.195-.116.293-.171.443-.244.776-.66.859-1.159l.285-1.708z"/>
      <path stroke-linejoin="round" stroke-linecap="round" stroke-width="1.333" d="M20 16a4.003 4.003 0 0 1-4 4 4.003 4.003 0 0 1-4-4 4.003 4.003 0 0 1 4-4 4.003 4.003 0 0 1 4 4z"/>
    </symbol>
    <symbol id="icon-openeye" viewBox="0 0 32 32">
      <path stroke-linejoin="round" stroke-linecap="round" stroke-width="1.333" d="M2.715 16.429a1.35 1.35 0 0 1 0-.852C4.564 10.013 9.814 6 16 6c6.184 0 11.431 4.009 13.284 9.571.093.276.093.575 0 .852C27.436 21.987 22.187 26 16 26c-6.184 0-11.432-4.009-13.285-9.571z"/>
      <path stroke-linejoin="round" stroke-linecap="round" stroke-width="1.333" d="M20 16a4.003 4.003 0 0 1-4 4 4.003 4.003 0 0 1-4-4 4.003 4.003 0 0 1 4-4 4.003 4.003 0 0 1 4 4z"/>
    </symbol>
    <symbol id="icon-closedeye" viewBox="0 0 32 32">
      <path stroke-linejoin="round" stroke-linecap="round" stroke-width="1.333" d="M5.307 10.964A13.978 13.978 0 0 0 2.579 16C4.302 21.784 9.659 26 16 26c1.324 0 2.604-.184 3.817-.527M8.304 8.304A13.936 13.936 0 0 1 16 6c6.341 0 11.697 4.216 13.42 9.997a14.033 14.033 0 0 1-5.724 7.699M8.304 8.304 4 4m4.304 4.304 4.867 4.867m10.525 10.525L28 28m-4.304-4.304-4.867-4.867A3.996 3.996 0 0 0 20 16a4.001 4.001 0 0 0-4-4 4.017 4.017 0 0 0-2.829 1.172m5.657 5.656-5.655-5.655"/>
    </symbol>
    <symbol id="icon-trash" viewBox="0 0 32 32">
      <path stroke-linejoin="round" stroke-linecap="round" stroke-width="1.333" d="m19.653 12-.461 12m-6.384 0-.461-12m13.29-4.28c.456.069.909.143 1.363.221m-1.363-.221-1.424 18.511A3 3 0 0 1 21.221 29H10.778a2.996 2.996 0 0 1-2.992-2.769L6.362 7.72m19.275 0A63.917 63.917 0 0 0 21 7.191M6.363 7.72c-.456.068-.909.141-1.363.22m1.363-.22A63.917 63.917 0 0 1 11 7.191m10 0V5.97c0-1.573-1.213-2.885-2.787-2.935a69.515 69.515 0 0 0-4.427 0c-1.573.049-2.787 1.363-2.787 2.935v1.221m10.001 0a64.947 64.947 0 0 0-10 0"/>
    </symbol>
    <symbol id="icon-note" viewBox="0 0 32 32">
      <path stroke-linejoin="round" stroke-linecap="round" stroke-width="1.333" d="m22.483 5.983 2.249-2.251a2.5 2.5 0 0 1 3.536 3.536L14.109 21.427a6.002 6.002 0 0 1-2.529 1.507L8 24.001l1.067-3.58a5.992 5.992 0 0 1 1.507-2.529L22.483 5.984zm0 0L26 9.5m-2 9.167V25a3.004 3.004 0 0 1-3 3H7a3.004 3.004 0 0 1-3-3V11a3.004 3.004 0 0 1 3-3h6.333"/>
    </symbol>
    <symbol id="icon-plus" viewBox="0 0 32 32">
      <path stroke-linejoin="round" stroke-linecap="round" stroke-width="1.333" d="M16 8v16m8-8H8"/>
    </symbol>
    <symbol id="icon-minus" viewBox="0 0 32 32">
      <path d="M7 16a.997.997 0 0 1 1-1h16a.997.997 0 0 1 1 1 .997.997 0 0 1-1 1H8a.997.997 0 0 1-1-1z"/>
    </symbol>
    <symbol id="icon-up" viewBox="0 0 32 32">
      <path stroke-linejoin="round" stroke-linecap="round" stroke-width="1.333" d="M4 22v3a3.004 3.004 0 0 0 3 3h18a3.004 3.004 0 0 0 3-3v-3M10 10l6-6m0 0 6 6m-6-6v18"/>
    </symbol>
    <symbol id="icon-roundplus" viewBox="0 0 32 32">
      <path stroke-linejoin="round" stroke-linecap="round" stroke-width="1.333" d="M16 12v8m4-4h-8m16 0a12 12 0 1 1-24.003.002A12 12 0 0 1 28.002 16z"/>
    </symbol>
    <symbol id="icon-left" viewBox="0 0 32 32">
      <path d="M9.706 10.293a1.002 1.002 0 0 1 0 1.414L6.413 15H28a.997.997 0 0 1 1 1 1 1 0 0 1-1 1H6.413l3.293 3.293a1.002 1.002 0 0 1 .025 1.439.992.992 0 0 1-.725.293 1.001 1.001 0 0 1-.714-.318l-5-5a1.002 1.002 0 0 1 0-1.414l5-5a1.002 1.002 0 0 1 1.414 0z"/>
    </symbol>
    <symbol id="closeModal" viewBox="0 0 32 32">
<path stroke-linejoin="round" stroke-linecap="round" stroke-miterlimit="4" stroke-width="3.4286" d="M2.286 29.714l27.429-27.429M2.286 2.286l27.429 27.429"></path>
</symbol>
    <symbol id="icon-user" viewBox="0 0 32 32">
      <path stroke-width="1.333" d="M31.333 16c0 8.468-6.865 15.333-15.333 15.333S.667 24.468.667 16 7.532.667 16 .667 31.333 7.532 31.333 16z"/>
      <path stroke-linejoin="round" stroke-linecap="round" stroke-width="1.333" d="M20.001 9.436c0 1.088-.421 2.132-1.172 2.901S17.061 13.539 16 13.539c-1.061 0-2.079-.432-2.829-1.202s-1.172-1.813-1.172-2.901c0-1.088.421-2.132 1.172-2.901S14.939 5.333 16 5.333c1.061 0 2.079.432 2.829 1.202s1.172 1.813 1.172 2.901zM8 24.881c.034-2.153.892-4.205 2.389-5.715S13.901 16.81 16 16.81c2.099 0 4.115.846 5.611 2.356s2.355 3.562 2.389 5.715a18.732 18.732 0 0 1-8 1.785c-2.855 0-5.564-.639-8-1.785z"/>
    </symbol>
    <symbol id="icon-logo" viewBox="0 0 68 32">
      <path fill="#9ebbff" style="fill:var(--color2, #9ebbff)" d="M10.546 4.879c.449-.353 1.016.412 1.076 1.118s-.568 2.295-2.331 2.707c-1.763.412-1.972 1.501-1.913 2.148s-.239 1.354-.867 1.207-.687-1.118-.12-2.031c.568-.913 2.002-1.736 2.241-2.237s.06-1.089.538-1.295c.478-.206 1.106.324 1.046.824 0 0 .478-.471.418-1.177-.039-.464-.315-1.088-.09-1.265zM22.141 9.176c.166-.472 1.345-.206 1.614.441s.179 1.148.448 1.589-.478 1.177-1.031 1.089c-.553-.088-.344-1.089-.344-1.53s-.956-.824-.687-1.589zM18.406 3.618c.409-.36 1.285.26 1.524.76s.03 1.824-.702 1.795c-.732-.029-.441-1.065-.702-1.28-.463-.382-.448-.986-.119-1.275zM13.361.553c.29.449.074 1.059-.663 1.197s-.877-.471-1.275-.334c-.399.138-.837.235-1.016-.079s.02-.785.817-.785 1.605-.824 2.137 0zM8.724 4.843c.347 0 .627-.298.627-.666s-.281-.666-.627-.666c-.347 0-.628.298-.628.666s.281.666.628.666zM6.002 7.047c-.223-.111-.954 1.039-.456 1.177s.812-1.001.456-1.177zM4.052 10.46s.976.53.618 1.618-1.135.952-1.375.618c-.239-.334-.239-.785.159-1.099s.598-1.137.598-1.137zM24.771 16.326s.299.442.15 1.236-.388 2.354.448 2.796c.836.442 1.165-1.118.837-1.589s.179-2.09-1.435-2.443zM25.832 23.418c.355 0 .643-.343.643-.765s-.288-.765-.643-.765-.643.343-.643.765c0 .423.288.765.643.765zM.625 23.712c.554-.283 1.016.177 1.076 1.03s.867 1.589.448 2.03c-.418.441-.905-1.383-1.285-1.552-.583-.26-1.046-1.096-.239-1.508z"/>
      <path fill="#9ebbff" style="fill:var(--color2, #9ebbff)" d="M24.157 24.565c-.522.53.173 1.078-1.059 2.472-.513.58.379 2.315-2.092 2.295 0 0-1.435 1.294-2.869 1.472s-2.032-.059-3.407.706c-1.375.765-4.423-.53-5.678-1.089s-1.733-.618-2.808-.618c-1.076 0-.657-1.648-1.435-2.354s-1.674-1-1.734-1.647c-.06-.647-.657-.942-.597-1.943s-.956-1.295-1.076-2.531.537-1.471.298-2.177c-.239-.706-.298-1.295.06-2.001.043-.086.092-.168.148-.245.307-.431.602-.398.808-1.108.239-.824-.418-1.177.299-1.53s.956.706.538 1.765c-.419 1.06-.957 2.06-.239 2.236s.538-2.001 1.495-3.002c.956-1.001.538-1.235 1.793-2.236s1.375-.588 1.793-1.648c.418-1.06 1.599-2.177 2.803-2.707s1.741-.765 1.561-1.648c-.18-.883.823-.883.86-1.825s-.801-1.589-1.518-1.354-1.435.235-1.195-.529c.239-.765 1.744-.706 2.456-.354s1.31-.529 2.266.354 2.211 1.177 2.032 3.238-.358 2.766.418 2.884c.777.118.12-.942.12-1.765s1.375-.765 1.733-.118c.358.647-.119 1.765.239 2.178s1.016.353 1.195.941c.179.588-.119 3.002.717 3.532s.657-1.294 1.375-.735c.717.559.896 1.559.478 2.56-.279.669-.308 2.339-.146 3.776.079.711.204 1.366.368 1.815.494 1.353.52 2.412-.001 2.942z"/>
      <path fill="#c6d7ff" style="fill:var(--color3, #c6d7ff)" d="M14.249 9.565c1.569-.488 2.887 2.212 2.34 3.372s-.78 4.739 1.248 4.294c2.028-.445.546-3.887 1.638-3.818s.624 3.219 1.326 4.217c.702.999 3.125 7.836-.778 10.217s-9.425 2.305-11.54.538a9.2 9.2 0 0 1-1.92-2.176 4.6 4.6 0 0 1-.434-.852c-.19-.512-.157-.692-.349-1.206a4.883 4.883 0 0 0-.482-.944c-.422-.638-.613-.564-1.007-1.119-.132-.186-.55-.812-.588-1.657-.01-.221-.038-.839.229-.949.302-.125.693.52 1.094.386.21-.07.302-.314.359-.466.17-.451 0-.73-.082-1.399-.063-.517-.138-1.139.17-1.664.05-.086.196-.367.679-.629 1.698-.922 3.222-.077 4.332-1.767s1.132-1.801 2.174-2.245c1.042-.444.106-1.673 1.588-2.134z"/>
      <path fill="#407bff" style="fill:var(--color1, #407bff)" d="M13.626 32c-1.108 0-2.655-.447-4.679-1.349-1.233-.55-1.671-.596-2.704-.596-.817 0-.991-.734-1.131-1.323-.099-.416-.201-.847-.477-1.098-.257-.234-.526-.418-.786-.597-.525-.362-.979-.674-1.029-1.213-.02-.214-.118-.39-.233-.595-.18-.323-.405-.724-.365-1.385.024-.411-.173-.678-.423-1.016-.274-.37-.586-.791-.652-1.476-.068-.703.095-1.111.225-1.44.107-.268.171-.43.086-.682-.216-.638-.357-1.346.074-2.193.181-.357.372-.524.526-.659.175-.153.301-.263.413-.651.083-.286.036-.498-.009-.703-.068-.308-.153-.691.44-.983.298-.147.59-.123.801.066.379.34.417 1.188.091 2.016-.057.145-.117.289-.175.43-.227.55-.484 1.171-.372 1.388.009.017.029.057.132.082.006.002.013.003.019.002.115-.04.255-.59.338-.918.167-.657.374-1.476.889-2.014.39-.409.536-.678.677-.939.2-.37.389-.721 1.142-1.321a7.258 7.258 0 0 1 1.031-.698c.357-.205.453-.26.685-.845.437-1.107 1.644-2.277 2.936-2.846l.006-.002c1.252-.552 1.543-.707 1.409-1.366-.12-.591.194-.898.447-1.145.212-.207.395-.385.408-.738a1.13 1.13 0 0 0-.442-.961c-.23-.17-.499-.222-.738-.143-.459.151-1.075.265-1.398-.046-.13-.125-.257-.365-.122-.797.087-.277.3-.493.616-.626.654-.275 1.65-.15 2.199.122.197.098.383.063.67-.001.44-.098.988-.221 1.655.395.203.187.426.351.642.51.797.585 1.621 1.191 1.47 2.932-.022.258-.045.494-.065.711-.155 1.629-.124 1.843.268 1.902a.391.391 0 0 0 .083.006c.017-.106-.055-.391-.103-.585-.073-.292-.156-.623-.156-.937 0-.409.255-.717.681-.824.51-.128 1.242.06 1.533.585.217.392.181.89.149 1.329-.023.319-.049.68.06.805.111.128.278.203.454.283.291.131.653.296.792.75.065.213.075.57.087 1.02.023.827.058 2.077.523 2.371.085.054.133.061.149.056.068-.02.166-.228.224-.353.111-.239.238-.51.508-.574.164-.039.337.012.514.15.801.625 1.019 1.744.556 2.854-.384.919-.251 4.104.226 5.41.549 1.5.529 2.608-.057 3.203-.136.138-.151.263-.171.531-.033.433-.078 1.025-.879 1.931-.1.113-.124.357-.149.615-.069.698-.172 1.746-2.038 1.767-.324.276-1.611 1.307-2.934 1.47-.407.05-.75.068-1.053.084-.765.04-1.318.068-2.259.592-.324.18-.733.271-1.231.271zM3.276 14.449a.339.339 0 0 0-.146.042c-.237.117-.231.146-.169.425.05.228.12.541.001.949-.153.528-.363.712-.565.889-.14.122-.271.238-.409.508-.329.648-.261 1.172-.046 1.809.144.426.023.731-.095 1.026-.116.293-.248.625-.192 1.208.053.548.309.894.556 1.227.273.369.556.751.521 1.342-.031.516.131.806.303 1.112.13.233.265.473.294.792.028.306.374.544.812.845.261.179.557.383.84.64.391.356.517.886.628 1.354.158.664.259.934.632.934 1.072 0 1.601.055 2.915.64 3.407 1.517 4.842 1.436 5.447 1.099 1.046-.582 1.681-.615 2.484-.657.294-.015.628-.032 1.017-.08 1.338-.165 2.714-1.395 2.728-1.407a.256.256 0 0 1 .173-.066h.002c1.494.012 1.554-.601 1.624-1.311.033-.341.065-.662.273-.897.69-.78.726-1.255.755-1.638.021-.28.043-.569.314-.844.428-.435.407-1.412-.057-2.682-.528-1.444-.652-4.734-.218-5.772.374-.896.217-1.785-.4-2.267a.337.337 0 0 0-.079-.049c-.047.045-.118.196-.161.289-.118.254-.253.542-.545.627-.176.051-.368.012-.57-.116-.693-.438-.729-1.738-.758-2.781-.011-.381-.02-.741-.066-.89-.069-.226-.232-.309-.515-.437-.208-.094-.445-.201-.629-.413-.246-.282-.214-.713-.181-1.169.028-.388.057-.789-.088-1.051-.161-.291-.638-.418-.957-.338-.295.074-.295.271-.295.335 0 .253.075.553.141.817.11.44.205.821-.014 1.057-.12.13-.303.177-.541.141-.918-.139-.845-.91-.7-2.447.02-.215.043-.451.065-.707.127-1.461-.487-1.913-1.266-2.485a7.624 7.624 0 0 1-.686-.546c-.469-.433-.789-.362-1.192-.271-.301.067-.643.143-1.014-.041-.439-.218-1.274-.316-1.768-.109-.176.074-.287.179-.328.311-.044.141-.047.251-.009.288.068.065.357.1.879-.072.401-.131.841-.052 1.207.219.426.315.668.832.647 1.384s-.32.843-.559 1.077c-.251.245-.369.377-.305.688.218 1.079-.504 1.398-1.702 1.925l-.006.003c-1.16.511-2.282 1.591-2.668 2.569-.285.721-.472.851-.904 1.098-.218.125-.518.297-.966.654-.671.535-.829.827-1.012 1.166-.149.276-.319.59-.756 1.048-.423.442-.612 1.19-.764 1.791-.089.352-.166.656-.278.882-.219.444-.533.442-.7.4a.675.675 0 0 1-.464-.343c-.218-.422.048-1.063.355-1.806.057-.139.116-.28.172-.423.281-.712.203-1.316.042-1.461-.011-.01-.024-.018-.038-.024s-.029-.008-.044-.007z"/>
      <path fill="#407bff" style="fill:var(--color1, #407bff)" d="M6.676 12.268a.91.91 0 0 1-.208-.025.803.803 0 0 1-.564-.49c-.202-.478-.077-1.177.326-1.824.328-.526.904-1.004 1.413-1.426.374-.311.728-.603.818-.792.078-.163.106-.347.133-.525.05-.324.106-.692.501-.863.27-.117.599-.065.878.139.141.102.256.235.337.388.086-.177.159-.414.136-.691a3.591 3.591 0 0 0-.087-.469c-.09-.394-.175-.767.069-.959a.576.576 0 0 1 .601-.08c.392.166.737.75.786 1.33.065.771-.613 2.471-2.478 2.907-1.657.387-1.818 1.386-1.766 1.947.047.512-.109 1.002-.397 1.248a.748.748 0 0 1-.497.184zM9.398 6.64a.381.381 0 0 0-.149.03c-.192.083-.227.253-.276.573-.03.195-.064.416-.166.629-.126.264-.476.554-.918.921-.487.404-1.038.861-1.333 1.334-.329.529-.449 1.124-.298 1.481a.422.422 0 0 0 .299.267.39.39 0 0 0 .365-.077c.195-.166.302-.539.266-.928-.051-.55.049-1.879 2.059-2.349 1.64-.383 2.24-1.846 2.184-2.508-.04-.476-.325-.916-.555-1.014a.185.185 0 0 0-.209.027c-.053.062.024.4.066.581.04.174.081.353.095.521.066.785-.452 1.305-.474 1.326-.028.028-.064.046-.104.053a.192.192 0 0 1-.201-.095.178.178 0 0 1-.022-.113c.021-.179-.092-.393-.283-.532a.597.597 0 0 0-.346-.126zM23.269 12.491a.78.78 0 0 1-.128-.01c-.619-.099-.56-.894-.521-1.42.008-.112.016-.218.016-.297 0-.101-.133-.25-.261-.393-.26-.29-.616-.688-.416-1.258.079-.224.302-.358.612-.366.49-.012 1.149.288 1.36.798.136.327.185.617.229.872.045.263.084.49.206.691.137.225.105.514-.087.794-.212.309-.613.589-1.012.589zm-.664-3.367h-.022c-.067.002-.226.016-.26.112-.118.336.058.568.341.884.184.205.357.399.357.643 0 .093-.008.205-.017.324-.029.389-.073.976.2 1.02.235.037.576-.15.76-.418.05-.072.157-.254.076-.387-.16-.263-.206-.535-.256-.823a3.415 3.415 0 0 0-.206-.792c-.139-.336-.618-.563-.972-.563zM19.253 6.363l-.033-.001c-.631-.025-.701-.621-.744-.976-.014-.116-.036-.311-.075-.348a1.132 1.132 0 0 1-.426-.847.923.923 0 0 1 .302-.713c.158-.138.37-.186.615-.136.497.1 1.028.575 1.21.957.186.389.15 1.187-.177 1.673-.174.257-.406.392-.674.392zm-.54-2.663a.262.262 0 0 0-.179.06.546.546 0 0 0-.174.425.748.748 0 0 0 .289.564c.153.126.18.353.209.594.051.429.105.632.378.643.145.006.266-.067.371-.224.243-.361.285-1.018.149-1.302-.14-.292-.57-.674-.939-.748a.603.603 0 0 0-.104-.012zM12.487 1.959c-.34 0-.556-.147-.721-.26-.156-.107-.205-.13-.28-.104-.288.099-.963.332-1.246-.164a.636.636 0 0 1 .003-.641c.094-.159.347-.426.98-.426.243 0 .502-.093.754-.182.496-.177 1.114-.397 1.545.27.174.27.203.585.079.867-.139.315-.455.54-.869.617a1.277 1.277 0 0 1-.247.024zm-.949-.752c.182 0 .326.099.448.182.178.122.346.237.677.175.291-.054.499-.195.588-.396A.535.535 0 0 0 13.2.654c-.253-.393-.549-.31-1.09-.117-.283.101-.575.205-.885.205-.322 0-.559.087-.649.239a.258.258 0 0 0 0 .264c.087.152.329.15.785-.007a.536.536 0 0 1 .177-.031zM8.724 5.032c-.452 0-.82-.383-.82-.855s.368-.855.82-.855c.452 0 .819.383.819.855s-.368.855-.819.855zm0-1.332c-.24 0-.436.214-.436.477s.195.477.436.477c.24 0 .436-.214.436-.477S8.965 3.7 8.724 3.7zM5.632 8.425a.534.534 0 0 1-.138-.019.407.407 0 0 1-.301-.326c-.071-.37.279-.947.541-1.141.158-.117.279-.098.354-.061.307.152.314.62.163 1.005-.136.345-.365.542-.619.542zm.311-1.169c-.141.119-.387.506-.375.73.003.048.012.05.03.055.111.031.231-.132.295-.296.086-.218.079-.408.05-.489zM3.796 13.126a.814.814 0 0 1-.658-.32c-.324-.452-.243-1.009.196-1.355.284-.223.479-.822.531-1.034a.188.188 0 0 1 .109-.129.194.194 0 0 1 .17.007c.386.209 1.03.864.708 1.842-.253.769-.693.944-.933.98a.848.848 0 0 1-.123.009zm.362-2.354c-.099.29-.291.742-.584.973-.343.27-.28.622-.122.842a.435.435 0 0 0 .41.155c.263-.039.484-.296.625-.722.209-.633-.102-1.045-.328-1.248zM25.652 20.624a.801.801 0 0 1-.374-.1c-.905-.478-.745-1.939-.546-2.997.132-.7-.118-1.093-.12-1.097a.189.189 0 0 1 .002-.212.193.193 0 0 1 .2-.078c1.27.278 1.369 1.283 1.435 1.948.024.243.047.472.116.572.283.405.179 1.306-.199 1.721a.685.685 0 0 1-.513.241zm-.556-3.993c.058.232.091.558.014.966-.274 1.455-.156 2.328.35 2.594.17.09.3.072.419-.06.274-.301.335-1.015.169-1.254-.126-.18-.152-.444-.182-.749-.055-.564-.117-1.192-.77-1.496zM25.832 23.607c-.46 0-.834-.428-.834-.954s.374-.954.834-.954.835.428.835.954-.375.954-.835.954zm0-1.53c-.248 0-.45.258-.45.576s.202.576.45.576c.249 0 .451-.258.451-.576s-.202-.576-.451-.576zM2.013 27.03a.292.292 0 0 1-.051-.004c-.303-.044-.519-.471-.769-.965-.117-.233-.314-.622-.409-.669-.443-.197-.772-.639-.785-1.051-.009-.333.182-.616.536-.797.264-.135.537-.139.768-.011.333.184.547.62.588 1.196.023.328.17.641.312.944.203.434.414.882.085 1.229a.372.372 0 0 1-.276.129zM.944 23.818a.513.513 0 0 0-.23.062c-.223.114-.334.266-.329.452.007.265.253.58.559.717.206.092.36.381.595.845.123.243.346.686.468.754l.003-.003c.146-.153.036-.409-.153-.812-.149-.318-.319-.679-.347-1.076-.031-.44-.178-.773-.393-.892a.353.353 0 0 0-.174-.045zM15.181 21.667c.153.752-.336 1.542-1.045 1.84-.992.445-2.237-.079-2.537-1.121a1.504 1.504 0 0 1-.036-.719.113.113 0 0 1 .22-.002c.163.765.808 1.337 1.579 1.329.765-.006 1.392-.57 1.557-1.326.027-.14.235-.138.262 0z"/>
      <path fill="#fff" style="fill:var(--color4, #fff)" opacity=".5" d="M6.593 22.817c.692-.13 1.115-.942.946-1.814s-.867-1.472-1.559-1.342c-.692.13-1.115.942-.946 1.814s.867 1.472 1.559 1.342zM6.63 18.799c.715.219 1.433-2.086 2.7-2.608s2.102-2.163 2.491-3.225c.389-1.062 1.984-1.755 1.647-2.497s-1.796-.145-2.656.985-.476 2.31-1.773 2.809c-1.297.499-3.889 4.082-2.409 4.536z"/>
      <path fill="#407bff" style="fill:var(--color1, #407bff)" opacity=".2" d="M23.504 24.485c-.49.478.162.974-.995 2.232-.482.523.356 2.091-1.966 2.072 0 0-1.348 1.169-2.696 1.329s-1.91-.053-3.202.638c-1.292.691-4.157-.478-5.337-.983s-1.629-.558-2.639-.558c-1.011 0-.618-1.488-1.348-2.126s-1.573-.903-1.629-1.487c-.056-.584-.618-.85-.562-1.754s-.899-1.169-1.011-2.285c-.112-1.116.505-1.328.28-1.966s-.28-1.169.056-1.806a1.65 1.65 0 0 1 .139-.222c.014.362.035.723.16.947.13.232.301.446.381.697.204.645-.252 1.301-.318 1.971-.123 1.24 1.04 2.2 1.836 3.192.708.883 1.216 1.969 2.216 2.547 1.113.644 2.556.478 3.775.04s2.331-1.123 3.573-1.5c1.437-.438 2.978-.445 4.485-.37 1.086.054 2.325.096 3.08-.643.434-.425.608-1.027.727-1.607.228-1.114.314-2.252.255-3.388l.394.737c.074.642.192 1.234.346 1.638.465 1.222.489 2.178 0 2.657z"/>
      <path fill="#407bff" style="fill:var(--color1, #407bff)" d="M16.942 16.62c.821-.082 1.578.802 1.692 1.976s-.459 2.192-1.279 2.274c-.82.082-1.578-.802-1.692-1.976s.459-2.191 1.279-2.274z"/>
      <path fill="#fff" style="fill:var(--color4, #fff)" d="M17 17.112c.261.108.374.507.252.892s-.434.61-.695.503c-.261-.108-.374-.507-.251-.892s.434-.61.695-.503z"/>
      <path fill="#8baeff" style="fill:var(--color5, #8baeff)" d="M17.879 19.634c.124.09.139.311.034.492s-.291.255-.415.165c-.123-.09-.139-.311-.034-.492s.291-.255.415-.165z"/>
      <path fill="#407bff" style="fill:var(--color1, #407bff)" d="M9.905 16.62c-.821-.082-1.578.802-1.692 1.976s.459 2.192 1.279 2.274c.821.082 1.578-.802 1.692-1.976s-.459-2.191-1.279-2.274z"/>
      <path fill="#fff" style="fill:var(--color4, #fff)" d="M9.847 17.112c-.261.108-.374.507-.251.892s.434.61.695.503.374-.507.252-.892c-.123-.385-.434-.61-.695-.503z"/>
      <path fill="#8baeff" style="fill:var(--color5, #8baeff)" d="M8.968 19.634c-.124.09-.139.311-.034.492s.291.255.415.165.139-.311.034-.492c-.105-.181-.291-.255-.415-.165z"/>
      <path fill="#407bff" style="fill:var(--color1, #407bff)" d="M32.384 8.313V14h-1.168V8.313h1.168zm1.75 0v.918h-4.641v-.918h4.641zm.668 0h2.121c.435 0 .809.065 1.121.195.315.13.557.323.727.578s.254.569.254.941c0 .305-.052.566-.156.785a1.473 1.473 0 0 1-.434.543 2.256 2.256 0 0 1-.652.344l-.371.195h-1.844l-.008-.914h1.371c.206 0 .376-.036.512-.109s.237-.174.305-.305a.941.941 0 0 0 .105-.453c0-.182-.034-.34-.102-.473s-.171-.234-.309-.305a1.143 1.143 0 0 0-.52-.105h-.949V14h-1.172V8.313zM37.982 14l-1.297-2.535 1.238-.008 1.312 2.488V14h-1.254zm4.258-4.715L40.693 14h-1.246l2.113-5.687h.793l-.113.973zM43.525 14l-1.551-4.715-.125-.973h.801l2.125 5.687h-1.25zm-.071-2.117v.918H40.45v-.918h3.004zm5.075.23h1.168a2.12 2.12 0 0 1-.316 1.02 1.882 1.882 0 0 1-.777.695c-.331.167-.729.25-1.195.25-.365 0-.691-.063-.98-.188a2.093 2.093 0 0 1-.742-.547c-.203-.237-.358-.523-.465-.859s-.16-.712-.16-1.129v-.395c0-.417.055-.793.164-1.129.112-.339.271-.626.477-.863.208-.237.457-.419.746-.547s.612-.191.969-.191c.474 0 .874.086 1.199.258.328.172.582.409.762.711.182.302.292.646.328 1.031h-1.172a1.51 1.51 0 0 0-.137-.582.774.774 0 0 0-.356-.363c-.156-.083-.365-.125-.625-.125-.195 0-.366.036-.512.109s-.268.184-.367.332a1.644 1.644 0 0 0-.223.563c-.047.224-.07.487-.07.789v.402c0 .294.022.553.066.777.044.221.112.409.203.563a.953.953 0 0 0 .359.344c.148.076.327.113.535.113.245 0 .447-.039.605-.117s.28-.194.363-.348c.086-.154.137-.345.152-.574zm3.109-3.8V14h-1.172V8.313h1.172zm3.406 0-2.254 2.809-1.301 1.398-.211-1.109.879-1.203 1.449-1.894h1.437zM53.712 14l-1.676-2.629.867-.727 2.195 3.355h-1.387zm5.656-.914V14h-3.027v-.914h3.027zm-2.644-4.773V14h-1.172V8.313h1.172zm2.25 2.316v.891h-2.633v-.891h2.633zm.391-2.316v.918h-3.023v-.918h3.023zm.687 0h2.121c.435 0 .809.065 1.121.195.315.13.557.323.727.578s.254.569.254.941c0 .305-.052.566-.156.785a1.473 1.473 0 0 1-.434.543 2.256 2.256 0 0 1-.652.344l-.371.195h-1.844l-.008-.914h1.371c.206 0 .376-.036.512-.109s.237-.174.305-.305a.941.941 0 0 0 .105-.453c0-.182-.034-.34-.102-.473s-.171-.234-.309-.305a1.143 1.143 0 0 0-.52-.105h-.949V14h-1.172V8.313zM63.232 14l-1.297-2.535 1.238-.008 1.312 2.488V14h-1.254zm-28.719 6.357v.27c0 .432-.059.82-.176 1.164s-.283.637-.496.879c-.214.24-.469.423-.766.551a2.43 2.43 0 0 1-.98.191c-.357 0-.684-.064-.98-.191a2.21 2.21 0 0 1-.766-.551 2.576 2.576 0 0 1-.504-.879 3.603 3.603 0 0 1-.176-1.164v-.27c0-.435.059-.823.176-1.164.117-.344.283-.637.496-.879.216-.242.471-.427.766-.555.297-.128.624-.191.98-.191.359 0 .686.064.98.191.297.128.552.312.766.555.216.242.383.535.5.879.12.341.18.729.18 1.164zm-1.184.269v-.277c0-.302-.027-.568-.082-.797s-.135-.422-.242-.578a1.057 1.057 0 0 0-.918-.473c-.198 0-.374.04-.527.121-.151.078-.28.195-.387.352-.104.156-.184.349-.238.578s-.082.495-.082.797v.277c0 .299.027.565.082.797.055.229.135.423.242.582.107.156.237.275.391.355s.329.121.527.121.374-.04.527-.121c.154-.081.283-.199.387-.355a1.82 1.82 0 0 0 .238-.582 3.47 3.47 0 0 0 .082-.797zm3.2-2.98v5.687h-1.172v-5.687h1.172zm2.265 2.43v.914h-2.586v-.914h2.586zm.274-2.43v.918h-2.859v-.918h2.859zm4.043 4.785 1.133-4.785h.633l.144.797-1.207 4.891h-.68l-.023-.902zm-.582-4.785.937 4.785-.078.902h-.758l-1.262-5.687h1.16zm3.488 4.765.926-4.766h1.16l-1.258 5.687h-.758l-.07-.922zm-.785-4.765 1.141 4.805-.031.883h-.68l-1.215-4.895.156-.793h.629zm5.648.972-1.547 4.715h-1.246l2.113-5.687h.793l-.113.973zm1.285 4.715-1.551-4.715-.125-.973h.801l2.125 5.687h-1.25zm-.07-2.117v.918h-3.004v-.918h3.004zm3.906-3.57v5.687h-1.168v-5.687h1.168zm1.75 0v.918H53.11v-.918h4.641zm4.485 4.773v.914h-3.027v-.914h3.027zm-2.645-4.773v5.687h-1.172v-5.687h1.172zm2.25 2.316v.891h-2.633v-.891h2.633zm.391-2.316v.918h-3.023v-.918h3.023zm.687 0h2.121c.435 0 .809.065 1.121.195.315.13.557.323.727.578s.254.569.254.941c0 .305-.052.566-.156.785a1.484 1.484 0 0 1-.434.543 2.256 2.256 0 0 1-.652.344l-.371.195h-1.844l-.008-.914h1.371c.206 0 .376-.036.512-.109s.237-.174.305-.305a.941.941 0 0 0 .105-.453c0-.182-.034-.34-.102-.473s-.171-.234-.309-.305a1.143 1.143 0 0 0-.52-.105h-.949v4.77h-1.172v-5.687zm3.18 5.687-1.297-2.535 1.238-.008 1.312 2.488v.055h-1.254z"/>
    </symbol>
  </defs>
</svg>