<svg width="16.000000" height="16.000000" viewBox="0 0 16 16" fill="none" xmlns="http://www.w3.org/2000/svg" xmlns:xlink="http://www.w3.org/1999/xlink">
	<desc>
			Created with Pixso.
	</desc>
	<defs>
		<clipPath id="clip146_844">
			<rect id="eye/outline" width="16.000000" height="16.000000" fill="white" fill-opacity="0"/>
		</clipPath>
	</defs>
	<rect id="eye/outline" width="16.000000" height="16.000000" fill="#FFFFFF" fill-opacity="0"/>
	<g clip-path="url(#clip146_844)">
		<path id="Vector" d="M1.35 7.78C2.28 5 4.9 3 8 3C11.09 3 13.71 5 14.64 7.78C14.68 7.92 14.68 8.07 14.64 8.21C13.71 10.99 11.09 13 8 13C4.9 13 2.28 10.99 1.35 8.21C1.31 8.07 1.31 7.92 1.35 7.78Z" stroke="#407BFF" stroke-opacity="1.000000" stroke-width="1.000000" stroke-linejoin="round"/>
		<path id="Vector" d="M9.41 9.41C9.03 9.78 8.53 10 8 10C7.46 10 6.96 9.78 6.58 9.41C6.21 9.03 6 8.53 6 8C6 7.46 6.21 6.96 6.58 6.58C6.96 6.21 7.46 6 8 6C8.53 6 9.03 6.21 9.41 6.58C9.78 6.96 10 7.46 10 8C10 8.53 9.78 9.03 9.41 9.41Z" stroke="#407BFF" stroke-opacity="1.000000" stroke-width="1.000000" stroke-linejoin="round"/>
	</g>
</svg>
