<svg width="15.000000" height="13.000000" viewBox="0 0 15 13" fill="none" xmlns="http://www.w3.org/2000/svg" xmlns:xlink="http://www.w3.org/1999/xlink">
	<desc>
			Created with Pixso.
	</desc>
	<defs/>
	<path id="Vector" d="M1.65 3.48C1.02 4.21 0.56 5.07 0.28 6C1.15 8.89 3.82 11 7 11C7.66 11 8.3 10.9 8.9 10.73M3.15 2.15C4.29 1.39 5.63 0.99 7 1C10.17 1 12.84 3.1 13.71 5.99C13.23 7.57 12.22 8.94 10.84 9.84M5.58 4.58L3.15 2.15L1 0M5.58 4.58C5.77 4.4 5.99 4.25 6.23 4.15C6.47 4.05 6.73 4 7 4C7.26 4 7.52 4.05 7.76 4.15C8 4.25 8.22 4.4 8.41 4.58C8.6 4.77 8.74 4.99 8.84 5.23C8.94 5.47 9 5.73 9 6C9 6.26 8.94 6.52 8.84 6.76C8.74 7 8.6 7.22 8.41 7.41L10.84 9.84L13 12M8.41 7.41L5.58 4.58" stroke="#407BFF" stroke-opacity="1.000000" stroke-width="1.000000" stroke-linejoin="round"/>
</svg>
